<mxfile host="app.diagrams.net" modified="2021-04-20T16:17:32.973Z" agent="5.0 (Windows NT 10.0; WOW64) AppleWebKit/537.36 (KHTML, like Gecko) Chrome/89.0.4389.114 Safari/537.36 OPR/75.0.3969.171" etag="px9PuF-DQqwnVB1_hB_r" version="14.6.3" type="github">
  <diagram id="lh_7sHI4BPcEQHjMX_4E" name="Page-1">
    <mxGraphModel dx="938" dy="596" grid="1" gridSize="10" guides="1" tooltips="1" connect="1" arrows="1" fold="1" page="1" pageScale="1" pageWidth="827" pageHeight="1169" math="0" shadow="0">
      <root>
        <mxCell id="0" />
        <mxCell id="1" parent="0" />
        <mxCell id="IzKmhjmk-teHAIT878Ja-2" value="" style="rounded=1;whiteSpace=wrap;html=1;direction=south;shadow=0;glass=0;sketch=0;strokeWidth=1;perimeterSpacing=1;fillColor=#f5f5f5;strokeColor=#666666;fontColor=#333333;arcSize=6;" vertex="1" parent="1">
          <mxGeometry x="80" y="60" width="680" height="620" as="geometry" />
        </mxCell>
        <mxCell id="IzKmhjmk-teHAIT878Ja-5" value="&lt;h1&gt;React Stock Tracker&lt;/h1&gt;" style="text;html=1;strokeColor=none;fillColor=none;spacing=5;spacingTop=-20;whiteSpace=wrap;overflow=hidden;rounded=0;shadow=0;glass=0;sketch=0;" vertex="1" parent="1">
          <mxGeometry x="385" y="90" width="245" height="30" as="geometry" />
        </mxCell>
        <mxCell id="IzKmhjmk-teHAIT878Ja-6" value="Searchbox" style="rounded=1;whiteSpace=wrap;html=1;shadow=0;glass=0;sketch=0;strokeWidth=1;" vertex="1" parent="1">
          <mxGeometry x="110" y="95" width="170" height="30" as="geometry" />
        </mxCell>
        <mxCell id="IzKmhjmk-teHAIT878Ja-7" value="" style="rounded=1;whiteSpace=wrap;html=1;shadow=0;glass=0;sketch=0;strokeWidth=1;" vertex="1" parent="1">
          <mxGeometry x="110" y="140" width="170" height="520" as="geometry" />
        </mxCell>
        <mxCell id="IzKmhjmk-teHAIT878Ja-10" value="" style="rounded=1;whiteSpace=wrap;html=1;shadow=0;glass=0;sketch=0;strokeWidth=1;" vertex="1" parent="1">
          <mxGeometry x="320" y="140" width="400" height="300" as="geometry" />
        </mxCell>
        <mxCell id="IzKmhjmk-teHAIT878Ja-49" value="" style="aspect=fixed;pointerEvents=1;shadow=0;dashed=0;html=1;strokeColor=none;labelPosition=center;verticalLabelPosition=bottom;verticalAlign=top;align=center;fillColor=#00188D;shape=mxgraph.mscae.general.graph;rounded=1;glass=0;sketch=0;" vertex="1" parent="1">
          <mxGeometry x="420" y="190" width="200" height="200" as="geometry" />
        </mxCell>
        <mxCell id="IzKmhjmk-teHAIT878Ja-52" value="" style="rounded=1;whiteSpace=wrap;html=1;shadow=0;glass=0;sketch=0;strokeWidth=1;" vertex="1" parent="1">
          <mxGeometry x="320" y="460" width="400" height="200" as="geometry" />
        </mxCell>
        <mxCell id="IzKmhjmk-teHAIT878Ja-55" value="&lt;b style=&quot;font-size: 13px;&quot;&gt;Tracked stocks&lt;/b&gt;" style="text;html=1;strokeColor=none;fillColor=none;align=center;verticalAlign=middle;whiteSpace=wrap;rounded=0;shadow=0;glass=0;sketch=0;fontSize=13;" vertex="1" parent="1">
          <mxGeometry x="130" y="150" width="120" height="20" as="geometry" />
        </mxCell>
        <mxCell id="IzKmhjmk-teHAIT878Ja-58" value="&lt;b style=&quot;font-size: 13px;&quot;&gt;Description&lt;/b&gt;" style="text;html=1;strokeColor=none;fillColor=none;align=center;verticalAlign=middle;whiteSpace=wrap;rounded=0;shadow=0;glass=0;sketch=0;fontSize=13;" vertex="1" parent="1">
          <mxGeometry x="480" y="470" width="80" height="20" as="geometry" />
        </mxCell>
      </root>
    </mxGraphModel>
  </diagram>
</mxfile>
